<?xml version="1.0" encoding="UTF-8"?>
<svg xmlns="http://www.w3.org/2000/svg" width="16" height="16" viewBox="0 0 16 16">
  <!-- Head profile - facing right -->
  <path d="M 4 2 C 2.5 2 1.5 3.2 1.5 4.5 L 1.5 7 C 1.5 8 2 9 3 9.5 L 3 11 C 3 11.5 3.2 12 3.8 12.2 L 5.5 13 L 7.5 13 L 7.5 11.5 L 8.5 10 L 8.5 8.5 L 7.5 8 L 7 7 L 7.5 6 L 7.5 5 C 7.5 3 6.5 2 4 2 Z"
        fill="none" stroke="currentColor" stroke-width="1.2" stroke-linejoin="round" stroke-linecap="round"/>
  <!-- Mouth area -->
  <path d="M 7.5 8 L 8.5 8.5"
        fill="none" stroke="currentColor" stroke-width="1.2" stroke-linecap="round"/>
  <!-- Sound wave 1 (small) -->
  <path d="M 10 7 C 10.8 7.8 10.8 9.2 10 10"
        fill="none" stroke="currentColor" stroke-width="1.2" stroke-linecap="round"/>
  <!-- Sound wave 2 (medium) -->
  <path d="M 11.5 5.8 C 13 7.3 13 9.7 11.5 11.2"
        fill="none" stroke="currentColor" stroke-width="1.2" stroke-linecap="round"/>
  <!-- Sound wave 3 (large) -->
  <path d="M 13 4.5 C 15.2 6.7 15.2 10.3 13 12.5"
        fill="none" stroke="currentColor" stroke-width="1.2" stroke-linecap="round"/>
</svg>
